<?xml version="1.0" encoding="UTF-8" standalone="no"?>
<!DOCTYPE svg PUBLIC "-//W3C//DTD SVG 1.1//EN"
 "http://www.w3.org/Graphics/SVG/1.1/DTD/svg11.dtd">
<!-- Generated by graphviz version 2.44.1 (20200629.0800)
 -->
<!-- Title: G Pages: 1 -->
<svg width="1046pt" height="1700pt"
 viewBox="0.00 0.00 1045.58 1700.00" xmlns="http://www.w3.org/2000/svg" xmlns:xlink="http://www.w3.org/1999/xlink">
<g id="graph0" class="graph" transform="scale(1 1) rotate(0) translate(4 1696)">
<title>G</title>
<polygon fill="white" stroke="transparent" points="-4,4 -4,-1696 1041.58,-1696 1041.58,4 -4,4"/>
<!-- Carlos Varela -->
<g id="node1" class="node">
<title>Carlos Varela</title>
<ellipse fill="none" stroke="black" cx="580.34" cy="-90" rx="64.19" ry="18"/>
<text text-anchor="middle" x="580.34" y="-86.3" font-family="CMU Serif Roman" font-size="14.00">Carlos Varela</text>
</g>
<!-- Saswata Paul -->
<g id="node2" class="node">
<title>Saswata Paul</title>
<ellipse fill="none" stroke="black" cx="580.34" cy="-18" rx="64.19" ry="18"/>
<text text-anchor="middle" x="580.34" y="-14.3" font-family="CMU Serif Roman" font-size="14.00">Saswata Paul</text>
</g>
<!-- Carlos Varela&#45;&gt;Saswata Paul -->
<g id="edge1" class="edge">
<title>Carlos Varela&#45;&gt;Saswata Paul</title>
<path fill="none" stroke="black" d="M580.34,-71.7C580.34,-63.98 580.34,-54.71 580.34,-46.11"/>
<polygon fill="black" stroke="black" points="583.84,-46.1 580.34,-36.1 576.84,-46.1 583.84,-46.1"/>
</g>
<!-- Gul Abdulnabi Agha -->
<g id="node3" class="node">
<title>Gul Abdulnabi Agha</title>
<g id="a_node3"><a xlink:href="https://en.wikipedia.org/wiki/Gul_Agha_(computer_scientist)" xlink:title="Gul Abdulnabi Agha">
<ellipse fill="none" stroke="black" cx="580.34" cy="-162" rx="96.38" ry="18"/>
<text text-anchor="middle" x="580.34" y="-158.3" font-family="CMU Serif Roman" font-size="14.00" fill="blue">Gul Abdulnabi Agha</text>
</a>
</g>
</g>
<!-- Gul Abdulnabi Agha&#45;&gt;Carlos Varela -->
<g id="edge2" class="edge">
<title>Gul Abdulnabi Agha&#45;&gt;Carlos Varela</title>
<path fill="none" stroke="black" d="M580.34,-143.7C580.34,-135.98 580.34,-126.71 580.34,-118.11"/>
<polygon fill="black" stroke="black" points="583.84,-118.1 580.34,-108.1 576.84,-118.1 583.84,-118.1"/>
</g>
<!-- John Henry Holland -->
<g id="node4" class="node">
<title>John Henry Holland</title>
<g id="a_node4"><a xlink:href="https://en.wikipedia.org/wiki/John_Henry_Holland" xlink:title="John Henry Holland">
<ellipse fill="none" stroke="black" cx="483.34" cy="-234" rx="92.88" ry="18"/>
<text text-anchor="middle" x="483.34" y="-230.3" font-family="CMU Serif Roman" font-size="14.00" fill="blue">John Henry Holland</text>
</a>
</g>
</g>
<!-- John Henry Holland&#45;&gt;Gul Abdulnabi Agha -->
<g id="edge3" class="edge">
<title>John Henry Holland&#45;&gt;Gul Abdulnabi Agha</title>
<path fill="none" stroke="black" d="M506.33,-216.41C519.04,-207.24 535.02,-195.7 548.88,-185.71"/>
<polygon fill="black" stroke="black" points="551.12,-188.4 557.18,-179.71 547.02,-182.73 551.12,-188.4"/>
</g>
<!-- Carl Eddie Hewitt -->
<g id="node5" class="node">
<title>Carl Eddie Hewitt</title>
<g id="a_node5"><a xlink:href="https://en.wikipedia.org/wiki/Carl_Hewitt" xlink:title="Carl Eddie Hewitt">
<ellipse fill="none" stroke="black" cx="678.34" cy="-234" rx="83.69" ry="18"/>
<text text-anchor="middle" x="678.34" y="-230.3" font-family="CMU Serif Roman" font-size="14.00" fill="blue">Carl Eddie Hewitt</text>
</a>
</g>
</g>
<!-- Carl Eddie Hewitt&#45;&gt;Gul Abdulnabi Agha -->
<g id="edge4" class="edge">
<title>Carl Eddie Hewitt&#45;&gt;Gul Abdulnabi Agha</title>
<path fill="none" stroke="black" d="M655.12,-216.41C642.27,-207.24 626.13,-195.7 612.13,-185.71"/>
<polygon fill="black" stroke="black" points="613.91,-182.68 603.74,-179.71 609.84,-188.37 613.91,-182.68"/>
</g>
<!-- Seymour Aubrey Papert -->
<g id="node6" class="node">
<title>Seymour Aubrey Papert</title>
<g id="a_node6"><a xlink:href="https://en.wikipedia.org/wiki/Seymour_Papert" xlink:title="Seymour Aubrey Papert">
<ellipse fill="none" stroke="black" cx="678.34" cy="-306" rx="108.58" ry="18"/>
<text text-anchor="middle" x="678.34" y="-302.3" font-family="CMU Serif Roman" font-size="14.00" fill="blue">Seymour Aubrey Papert</text>
</a>
</g>
</g>
<!-- Seymour Aubrey Papert&#45;&gt;Carl Eddie Hewitt -->
<g id="edge5" class="edge">
<title>Seymour Aubrey Papert&#45;&gt;Carl Eddie Hewitt</title>
<path fill="none" stroke="black" d="M678.34,-287.7C678.34,-279.98 678.34,-270.71 678.34,-262.11"/>
<polygon fill="black" stroke="black" points="681.84,-262.1 678.34,-252.1 674.84,-262.1 681.84,-262.1"/>
</g>
<!-- Frank Smithies -->
<g id="node7" class="node">
<title>Frank Smithies</title>
<g id="a_node7"><a xlink:href="https://en.wikipedia.org/wiki/Frank_Smithies" xlink:title="Frank Smithies">
<ellipse fill="none" stroke="black" cx="678.34" cy="-378" rx="71.49" ry="18"/>
<text text-anchor="middle" x="678.34" y="-374.3" font-family="CMU Serif Roman" font-size="14.00" fill="blue">Frank Smithies</text>
</a>
</g>
</g>
<!-- Frank Smithies&#45;&gt;Seymour Aubrey Papert -->
<g id="edge6" class="edge">
<title>Frank Smithies&#45;&gt;Seymour Aubrey Papert</title>
<path fill="none" stroke="black" d="M678.34,-359.7C678.34,-351.98 678.34,-342.71 678.34,-334.11"/>
<polygon fill="black" stroke="black" points="681.84,-334.1 678.34,-324.1 674.84,-334.1 681.84,-334.1"/>
</g>
<!-- Godfrey Harold Hardy -->
<g id="node8" class="node">
<title>Godfrey Harold Hardy</title>
<g id="a_node8"><a xlink:href="https://en.wikipedia.org/wiki/G._H._Hardy" xlink:title="Godfrey Harold Hardy">
<ellipse fill="none" stroke="black" cx="678.34" cy="-450" rx="101.28" ry="18"/>
<text text-anchor="middle" x="678.34" y="-446.3" font-family="CMU Serif Roman" font-size="14.00" fill="blue">Godfrey Harold Hardy</text>
</a>
</g>
</g>
<!-- Godfrey Harold Hardy&#45;&gt;Frank Smithies -->
<g id="edge7" class="edge">
<title>Godfrey Harold Hardy&#45;&gt;Frank Smithies</title>
<path fill="none" stroke="black" d="M678.34,-431.7C678.34,-423.98 678.34,-414.71 678.34,-406.11"/>
<polygon fill="black" stroke="black" points="681.84,-406.1 678.34,-396.1 674.84,-406.1 681.84,-406.1"/>
</g>
<!-- Augustus Edward Hough Love -->
<g id="node9" class="node">
<title>Augustus Edward Hough Love</title>
<g id="a_node9"><a xlink:href="https://en.wikipedia.org/wiki/Augustus_Edward_Hough_Love" xlink:title="Augustus Edward Hough Love">
<ellipse fill="none" stroke="black" cx="541.34" cy="-522" rx="135.68" ry="18"/>
<text text-anchor="middle" x="541.34" y="-518.3" font-family="CMU Serif Roman" font-size="14.00" fill="blue">Augustus Edward Hough Love</text>
</a>
</g>
</g>
<!-- Augustus Edward Hough Love&#45;&gt;Godfrey Harold Hardy -->
<g id="edge8" class="edge">
<title>Augustus Edward Hough Love&#45;&gt;Godfrey Harold Hardy</title>
<path fill="none" stroke="black" d="M573.81,-504.41C592.88,-494.66 617.17,-482.25 637.53,-471.85"/>
<polygon fill="black" stroke="black" points="639.27,-474.9 646.58,-467.23 636.08,-468.66 639.27,-474.9"/>
</g>
<!-- Edmund Taylor Whittaker -->
<g id="node10" class="node">
<title>Edmund Taylor Whittaker</title>
<g id="a_node10"><a xlink:href="https://en.wikipedia.org/wiki/E._T._Whittaker" xlink:title="Edmund Taylor Whittaker">
<ellipse fill="none" stroke="black" cx="815.34" cy="-522" rx="120.48" ry="18"/>
<text text-anchor="middle" x="815.34" y="-518.3" font-family="CMU Serif Roman" font-size="14.00" fill="blue">Edmund Taylor Whittaker</text>
</a>
</g>
</g>
<!-- Edmund Taylor Whittaker&#45;&gt;Godfrey Harold Hardy -->
<g id="edge9" class="edge">
<title>Edmund Taylor Whittaker&#45;&gt;Godfrey Harold Hardy</title>
<path fill="none" stroke="black" d="M783.22,-504.59C764.15,-494.85 739.79,-482.4 719.34,-471.95"/>
<polygon fill="black" stroke="black" points="720.76,-468.74 710.26,-467.31 717.57,-474.98 720.76,-468.74"/>
</g>
<!-- George Howard Darwin -->
<g id="node11" class="node">
<title>George Howard Darwin</title>
<g id="a_node11"><a xlink:href="https://en.wikipedia.org/wiki/George_Darwin" xlink:title="George Howard Darwin">
<ellipse fill="none" stroke="black" cx="699.34" cy="-594" rx="105.88" ry="18"/>
<text text-anchor="middle" x="699.34" y="-590.3" font-family="CMU Serif Roman" font-size="14.00" fill="blue">George Howard Darwin</text>
</a>
</g>
</g>
<!-- George Howard Darwin&#45;&gt;Edmund Taylor Whittaker -->
<g id="edge10" class="edge">
<title>George Howard Darwin&#45;&gt;Edmund Taylor Whittaker</title>
<path fill="none" stroke="black" d="M726.54,-576.59C742.28,-567.09 762.28,-555.02 779.31,-544.74"/>
<polygon fill="black" stroke="black" points="781.16,-547.71 787.91,-539.55 777.54,-541.72 781.16,-547.71"/>
</g>
<!-- Andrew Russell Forsyth -->
<g id="node12" class="node">
<title>Andrew Russell Forsyth</title>
<g id="a_node12"><a xlink:href="https://en.wikipedia.org/wiki/Andrew_Forsyth" xlink:title="Andrew Russell Forsyth">
<ellipse fill="none" stroke="black" cx="930.34" cy="-594" rx="107.48" ry="18"/>
<text text-anchor="middle" x="930.34" y="-590.3" font-family="CMU Serif Roman" font-size="14.00" fill="blue">Andrew Russell Forsyth</text>
</a>
</g>
</g>
<!-- Andrew Russell Forsyth&#45;&gt;Edmund Taylor Whittaker -->
<g id="edge11" class="edge">
<title>Andrew Russell Forsyth&#45;&gt;Edmund Taylor Whittaker</title>
<path fill="none" stroke="black" d="M903.09,-576.41C887.73,-567.06 868.35,-555.27 851.71,-545.14"/>
<polygon fill="black" stroke="black" points="853.16,-541.92 842.8,-539.71 849.52,-547.9 853.16,-541.92"/>
</g>
<!-- Edward John Routh -->
<g id="node13" class="node">
<title>Edward John Routh</title>
<g id="a_node13"><a xlink:href="https://en.wikipedia.org/wiki/Andrew_Forsyth" xlink:title="Edward John Routh">
<ellipse fill="none" stroke="black" cx="699.34" cy="-666" rx="94.78" ry="18"/>
<text text-anchor="middle" x="699.34" y="-662.3" font-family="CMU Serif Roman" font-size="14.00" fill="blue">Edward John Routh</text>
</a>
</g>
</g>
<!-- Edward John Routh&#45;&gt;George Howard Darwin -->
<g id="edge12" class="edge">
<title>Edward John Routh&#45;&gt;George Howard Darwin</title>
<path fill="none" stroke="black" d="M699.34,-647.7C699.34,-639.98 699.34,-630.71 699.34,-622.11"/>
<polygon fill="black" stroke="black" points="702.84,-622.1 699.34,-612.1 695.84,-622.1 702.84,-622.1"/>
</g>
<!-- William Hopkins -->
<g id="node14" class="node">
<title>William Hopkins</title>
<g id="a_node14"><a xlink:href="https://en.wikipedia.org/wiki/William_Hopkins" xlink:title="William Hopkins">
<ellipse fill="none" stroke="black" cx="525.34" cy="-738" rx="78.79" ry="18"/>
<text text-anchor="middle" x="525.34" y="-734.3" font-family="CMU Serif Roman" font-size="14.00" fill="blue">William Hopkins</text>
</a>
</g>
</g>
<!-- William Hopkins&#45;&gt;Edward John Routh -->
<g id="edge13" class="edge">
<title>William Hopkins&#45;&gt;Edward John Routh</title>
<path fill="none" stroke="black" d="M562.67,-721.98C588.57,-711.56 623.31,-697.59 651.28,-686.33"/>
<polygon fill="black" stroke="black" points="652.9,-689.46 660.87,-682.48 650.29,-682.96 652.9,-689.46"/>
</g>
<!-- Isaac Todhunter -->
<g id="node15" class="node">
<title>Isaac Todhunter</title>
<g id="a_node15"><a xlink:href="https://en.wikipedia.org/wiki/Isaac_Todhunter" xlink:title="Isaac Todhunter">
<ellipse fill="none" stroke="black" cx="699.34" cy="-738" rx="77.19" ry="18"/>
<text text-anchor="middle" x="699.34" y="-734.3" font-family="CMU Serif Roman" font-size="14.00" fill="blue">Isaac Todhunter</text>
</a>
</g>
</g>
<!-- Isaac Todhunter&#45;&gt;Edward John Routh -->
<g id="edge14" class="edge">
<title>Isaac Todhunter&#45;&gt;Edward John Routh</title>
<path fill="none" stroke="black" d="M699.34,-719.7C699.34,-711.98 699.34,-702.71 699.34,-694.11"/>
<polygon fill="black" stroke="black" points="702.84,-694.1 699.34,-684.1 695.84,-694.1 702.84,-694.1"/>
</g>
<!-- Augustus De Morgan -->
<g id="node16" class="node">
<title>Augustus De Morgan</title>
<g id="a_node16"><a xlink:href="https://en.wikipedia.org/wiki/Augustus_De_Morgan" xlink:title="Augustus De Morgan">
<ellipse fill="none" stroke="black" cx="891.34" cy="-738" rx="96.68" ry="18"/>
<text text-anchor="middle" x="891.34" y="-734.3" font-family="CMU Serif Roman" font-size="14.00" fill="blue">Augustus De Morgan</text>
</a>
</g>
</g>
<!-- Augustus De Morgan&#45;&gt;Edward John Routh -->
<g id="edge15" class="edge">
<title>Augustus De Morgan&#45;&gt;Edward John Routh</title>
<path fill="none" stroke="black" d="M849.2,-721.64C820.22,-711.07 781.55,-696.97 750.75,-685.74"/>
<polygon fill="black" stroke="black" points="751.64,-682.34 741.05,-682.21 749.24,-688.92 751.64,-682.34"/>
</g>
<!-- Adam Sedgwick -->
<g id="node17" class="node">
<title>Adam Sedgwick</title>
<g id="a_node17"><a xlink:href="https://en.wikipedia.org/wiki/Adam_Sedgwick" xlink:title="Adam Sedgwick">
<ellipse fill="none" stroke="black" cx="525.34" cy="-810" rx="75.29" ry="18"/>
<text text-anchor="middle" x="525.34" y="-806.3" font-family="CMU Serif Roman" font-size="14.00" fill="blue">Adam Sedgwick</text>
</a>
</g>
</g>
<!-- Adam Sedgwick&#45;&gt;William Hopkins -->
<g id="edge16" class="edge">
<title>Adam Sedgwick&#45;&gt;William Hopkins</title>
<path fill="none" stroke="black" d="M525.34,-791.7C525.34,-783.98 525.34,-774.71 525.34,-766.11"/>
<polygon fill="black" stroke="black" points="528.84,-766.1 525.34,-756.1 521.84,-766.1 528.84,-766.1"/>
</g>
<!-- Thomas Jones -->
<g id="node18" class="node">
<title>Thomas Jones</title>
<g id="a_node18"><a xlink:href="https://en.wikipedia.org/wiki/Thomas_Jones_(mathematician)" xlink:title="Thomas Jones">
<ellipse fill="none" stroke="black" cx="449.34" cy="-882" rx="68.79" ry="18"/>
<text text-anchor="middle" x="449.34" y="-878.3" font-family="CMU Serif Roman" font-size="14.00" fill="blue">Thomas Jones</text>
</a>
</g>
</g>
<!-- Thomas Jones&#45;&gt;Adam Sedgwick -->
<g id="edge17" class="edge">
<title>Thomas Jones&#45;&gt;Adam Sedgwick</title>
<path fill="none" stroke="black" d="M467.35,-864.41C477.03,-855.5 489.13,-844.36 499.76,-834.56"/>
<polygon fill="black" stroke="black" points="502.21,-837.06 507.19,-827.71 497.47,-831.91 502.21,-837.06"/>
</g>
<!-- John Dawson -->
<g id="node19" class="node">
<title>John Dawson</title>
<g id="a_node19"><a xlink:href="https://en.wikipedia.org/wiki/John_Dawson_(surgeon)" xlink:title="John Dawson">
<ellipse fill="none" stroke="black" cx="602.34" cy="-882" rx="65.79" ry="18"/>
<text text-anchor="middle" x="602.34" y="-878.3" font-family="CMU Serif Roman" font-size="14.00" fill="blue">John Dawson</text>
</a>
</g>
</g>
<!-- John Dawson&#45;&gt;Adam Sedgwick -->
<g id="edge18" class="edge">
<title>John Dawson&#45;&gt;Adam Sedgwick</title>
<path fill="none" stroke="black" d="M584.09,-864.41C574.29,-855.5 562.03,-844.36 551.25,-834.56"/>
<polygon fill="black" stroke="black" points="553.48,-831.85 543.72,-827.71 548.77,-837.03 553.48,-831.85"/>
</g>
<!-- Thomas Postlethwaite -->
<g id="node20" class="node">
<title>Thomas Postlethwaite</title>
<g id="a_node20"><a xlink:href="https://en.wikipedia.org/wiki/Thomas_Postlethwaite" xlink:title="Thomas Postlethwaite">
<ellipse fill="none" stroke="black" cx="449.34" cy="-954" rx="100.98" ry="18"/>
<text text-anchor="middle" x="449.34" y="-950.3" font-family="CMU Serif Roman" font-size="14.00" fill="blue">Thomas Postlethwaite</text>
</a>
</g>
</g>
<!-- Thomas Postlethwaite&#45;&gt;Thomas Jones -->
<g id="edge19" class="edge">
<title>Thomas Postlethwaite&#45;&gt;Thomas Jones</title>
<path fill="none" stroke="black" d="M449.34,-935.7C449.34,-927.98 449.34,-918.71 449.34,-910.11"/>
<polygon fill="black" stroke="black" points="452.84,-910.1 449.34,-900.1 445.84,-910.1 452.84,-910.1"/>
</g>
<!-- Stephen Whisson -->
<g id="node21" class="node">
<title>Stephen Whisson</title>
<g id="a_node21"><a xlink:href="https://en.wikipedia.org/wiki/Stephen_Whisson" xlink:title="Stephen Whisson">
<ellipse fill="none" stroke="black" cx="449.34" cy="-1026" rx="81.49" ry="18"/>
<text text-anchor="middle" x="449.34" y="-1022.3" font-family="CMU Serif Roman" font-size="14.00" fill="blue">Stephen Whisson</text>
</a>
</g>
</g>
<!-- Stephen Whisson&#45;&gt;Thomas Postlethwaite -->
<g id="edge20" class="edge">
<title>Stephen Whisson&#45;&gt;Thomas Postlethwaite</title>
<path fill="none" stroke="black" d="M449.34,-1007.7C449.34,-999.98 449.34,-990.71 449.34,-982.11"/>
<polygon fill="black" stroke="black" points="452.84,-982.1 449.34,-972.1 445.84,-982.1 452.84,-982.1"/>
</g>
<!-- Walter Taylor -->
<g id="node22" class="node">
<title>Walter Taylor</title>
<g id="a_node22"><a xlink:href="https://en.wikipedia.org/wiki/Walter_Taylor_(mathematician)" xlink:title="Walter Taylor">
<ellipse fill="none" stroke="black" cx="449.34" cy="-1098" rx="67.69" ry="18"/>
<text text-anchor="middle" x="449.34" y="-1094.3" font-family="CMU Serif Roman" font-size="14.00" fill="blue">Walter Taylor</text>
</a>
</g>
</g>
<!-- Walter Taylor&#45;&gt;Stephen Whisson -->
<g id="edge21" class="edge">
<title>Walter Taylor&#45;&gt;Stephen Whisson</title>
<path fill="none" stroke="black" d="M449.34,-1079.7C449.34,-1071.98 449.34,-1062.71 449.34,-1054.11"/>
<polygon fill="black" stroke="black" points="452.84,-1054.1 449.34,-1044.1 445.84,-1054.1 452.84,-1054.1"/>
</g>
<!-- Robert Smith -->
<g id="node23" class="node">
<title>Robert Smith</title>
<g id="a_node23"><a xlink:href="https://en.wikipedia.org/wiki/Robert_Smith_(mathematician)" xlink:title="Robert Smith">
<ellipse fill="none" stroke="black" cx="449.34" cy="-1170" rx="65.79" ry="18"/>
<text text-anchor="middle" x="449.34" y="-1166.3" font-family="CMU Serif Roman" font-size="14.00" fill="blue">Robert Smith</text>
</a>
</g>
</g>
<!-- Robert Smith&#45;&gt;Walter Taylor -->
<g id="edge22" class="edge">
<title>Robert Smith&#45;&gt;Walter Taylor</title>
<path fill="none" stroke="black" d="M449.34,-1151.7C449.34,-1143.98 449.34,-1134.71 449.34,-1126.11"/>
<polygon fill="black" stroke="black" points="452.84,-1126.1 449.34,-1116.1 445.84,-1126.1 452.84,-1126.1"/>
</g>
<!-- Roger Cotes -->
<g id="node24" class="node">
<title>Roger Cotes</title>
<g id="a_node24"><a xlink:href="https://en.wikipedia.org/wiki/Roger_Cotes" xlink:title="Roger Cotes">
<ellipse fill="none" stroke="black" cx="449.34" cy="-1242" rx="59.59" ry="18"/>
<text text-anchor="middle" x="449.34" y="-1238.3" font-family="CMU Serif Roman" font-size="14.00" fill="blue">Roger Cotes</text>
</a>
</g>
</g>
<!-- Roger Cotes&#45;&gt;Robert Smith -->
<g id="edge23" class="edge">
<title>Roger Cotes&#45;&gt;Robert Smith</title>
<path fill="none" stroke="black" d="M449.34,-1223.7C449.34,-1215.98 449.34,-1206.71 449.34,-1198.11"/>
<polygon fill="black" stroke="black" points="452.84,-1198.1 449.34,-1188.1 445.84,-1198.1 452.84,-1198.1"/>
</g>
<!-- Isaac Newton -->
<g id="node25" class="node">
<title>Isaac Newton</title>
<g id="a_node25"><a xlink:href="https://en.wikipedia.org/wiki/Isaac_Newton" xlink:title="Isaac Newton">
<ellipse fill="none" stroke="black" cx="370.34" cy="-1314" rx="64.19" ry="18"/>
<text text-anchor="middle" x="370.34" y="-1310.3" font-family="CMU Serif Roman" font-size="14.00" fill="blue">Isaac Newton</text>
</a>
</g>
</g>
<!-- Isaac Newton&#45;&gt;Roger Cotes -->
<g id="edge24" class="edge">
<title>Isaac Newton&#45;&gt;Roger Cotes</title>
<path fill="none" stroke="black" d="M389.06,-1296.41C399.27,-1287.37 412.06,-1276.03 423.24,-1266.13"/>
<polygon fill="black" stroke="black" points="425.86,-1268.48 431.02,-1259.23 421.22,-1263.24 425.86,-1268.48"/>
</g>
<!-- Richard Bentley -->
<g id="node26" class="node">
<title>Richard Bentley</title>
<g id="a_node26"><a xlink:href="https://en.wikipedia.org/wiki/Richard_Bentley" xlink:title="Richard Bentley">
<ellipse fill="none" stroke="black" cx="528.34" cy="-1314" rx="75.29" ry="18"/>
<text text-anchor="middle" x="528.34" y="-1310.3" font-family="CMU Serif Roman" font-size="14.00" fill="blue">Richard Bentley</text>
</a>
</g>
</g>
<!-- Richard Bentley&#45;&gt;Roger Cotes -->
<g id="edge25" class="edge">
<title>Richard Bentley&#45;&gt;Roger Cotes</title>
<path fill="none" stroke="black" d="M509.62,-1296.41C499.41,-1287.37 486.62,-1276.03 475.44,-1266.13"/>
<polygon fill="black" stroke="black" points="477.46,-1263.24 467.65,-1259.23 472.82,-1268.48 477.46,-1263.24"/>
</g>
<!-- Isaac Barrow -->
<g id="node27" class="node">
<title>Isaac Barrow</title>
<g id="a_node27"><a xlink:href="https://en.wikipedia.org/wiki/Isaac_Barrow" xlink:title="Isaac Barrow">
<ellipse fill="none" stroke="black" cx="288.34" cy="-1386" rx="62.29" ry="18"/>
<text text-anchor="middle" x="288.34" y="-1382.3" font-family="CMU Serif Roman" font-size="14.00" fill="blue">Isaac Barrow</text>
</a>
</g>
</g>
<!-- Isaac Barrow&#45;&gt;Isaac Newton -->
<g id="edge26" class="edge">
<title>Isaac Barrow&#45;&gt;Isaac Newton</title>
<path fill="none" stroke="black" d="M307.36,-1368.76C318.04,-1359.64 331.56,-1348.1 343.33,-1338.06"/>
<polygon fill="black" stroke="black" points="345.81,-1340.54 351.14,-1331.39 341.26,-1335.22 345.81,-1340.54"/>
</g>
<!-- Benjamin Pulleyn -->
<g id="node28" class="node">
<title>Benjamin Pulleyn</title>
<g id="a_node28"><a xlink:href="https://en.wikipedia.org/wiki/Benjamin_Pulleyn" xlink:title="Benjamin Pulleyn">
<ellipse fill="none" stroke="black" cx="452.34" cy="-1386" rx="83.39" ry="18"/>
<text text-anchor="middle" x="452.34" y="-1382.3" font-family="CMU Serif Roman" font-size="14.00" fill="blue">Benjamin Pulleyn</text>
</a>
</g>
</g>
<!-- Benjamin Pulleyn&#45;&gt;Isaac Newton -->
<g id="edge27" class="edge">
<title>Benjamin Pulleyn&#45;&gt;Isaac Newton</title>
<path fill="none" stroke="black" d="M432.91,-1368.41C422.21,-1359.28 408.77,-1347.81 397.1,-1337.84"/>
<polygon fill="black" stroke="black" points="399.23,-1335.06 389.35,-1331.23 394.68,-1340.38 399.23,-1335.06"/>
</g>
<!-- Vincenzo Viviani -->
<g id="node29" class="node">
<title>Vincenzo Viviani</title>
<g id="a_node29"><a xlink:href="https://en.wikipedia.org/wiki/Vincenzo_Viviani" xlink:title="Vincenzo Viviani">
<ellipse fill="none" stroke="black" cx="206.34" cy="-1458" rx="79.09" ry="18"/>
<text text-anchor="middle" x="206.34" y="-1454.3" font-family="CMU Serif Roman" font-size="14.00" fill="blue">Vincenzo Viviani</text>
</a>
</g>
</g>
<!-- Vincenzo Viviani&#45;&gt;Isaac Barrow -->
<g id="edge28" class="edge">
<title>Vincenzo Viviani&#45;&gt;Isaac Barrow</title>
<path fill="none" stroke="black" d="M225.77,-1440.41C236.47,-1431.28 249.91,-1419.81 261.58,-1409.84"/>
<polygon fill="black" stroke="black" points="264,-1412.38 269.33,-1403.23 259.45,-1407.06 264,-1412.38"/>
</g>
<!-- James Duport -->
<g id="node30" class="node">
<title>James Duport</title>
<g id="a_node30"><a xlink:href="https://en.wikipedia.org/wiki/James_Duport" xlink:title="James Duport">
<ellipse fill="none" stroke="black" cx="371.34" cy="-1458" rx="67.69" ry="18"/>
<text text-anchor="middle" x="371.34" y="-1454.3" font-family="CMU Serif Roman" font-size="14.00" fill="blue">James Duport</text>
</a>
</g>
</g>
<!-- James Duport&#45;&gt;Isaac Barrow -->
<g id="edge29" class="edge">
<title>James Duport&#45;&gt;Isaac Barrow</title>
<path fill="none" stroke="black" d="M351.67,-1440.41C340.84,-1431.28 327.24,-1419.81 315.42,-1409.84"/>
<polygon fill="black" stroke="black" points="317.48,-1407 307.58,-1403.23 312.97,-1412.35 317.48,-1407"/>
</g>
<!-- Galileo Galilei -->
<g id="node31" class="node">
<title>Galileo Galilei</title>
<g id="a_node31"><a xlink:href="https://en.wikipedia.org/wiki/Galileo_Galilei" xlink:title="Galileo Galilei">
<ellipse fill="none" stroke="black" cx="116.34" cy="-1530" rx="66.89" ry="18"/>
<text text-anchor="middle" x="116.34" y="-1526.3" font-family="CMU Serif Roman" font-size="14.00" fill="blue">Galileo Galilei</text>
</a>
</g>
</g>
<!-- Galileo Galilei&#45;&gt;Vincenzo Viviani -->
<g id="edge30" class="edge">
<title>Galileo Galilei&#45;&gt;Vincenzo Viviani</title>
<path fill="none" stroke="black" d="M137.21,-1512.76C149.06,-1503.55 164.06,-1491.88 177.07,-1481.77"/>
<polygon fill="black" stroke="black" points="179.52,-1484.29 185.27,-1475.39 175.22,-1478.77 179.52,-1484.29"/>
</g>
<!-- Evangelista Torricelli -->
<g id="node32" class="node">
<title>Evangelista Torricelli</title>
<g id="a_node32"><a xlink:href="https://en.wikipedia.org/wiki/Evangelista_Torricelli" xlink:title="Evangelista Torricelli">
<ellipse fill="none" stroke="black" cx="296.34" cy="-1530" rx="95.58" ry="18"/>
<text text-anchor="middle" x="296.34" y="-1526.3" font-family="CMU Serif Roman" font-size="14.00" fill="blue">Evangelista Torricelli</text>
</a>
</g>
</g>
<!-- Evangelista Torricelli&#45;&gt;Vincenzo Viviani -->
<g id="edge31" class="edge">
<title>Evangelista Torricelli&#45;&gt;Vincenzo Viviani</title>
<path fill="none" stroke="black" d="M275.01,-1512.41C263.24,-1503.26 248.45,-1491.76 235.62,-1481.77"/>
<polygon fill="black" stroke="black" points="237.56,-1478.85 227.52,-1475.47 233.26,-1484.37 237.56,-1478.85"/>
</g>
<!-- Ostillo Ricci -->
<g id="node33" class="node">
<title>Ostillo Ricci</title>
<g id="a_node33"><a xlink:href="https://en.wikipedia.org/wiki/Ostilio_Ricci" xlink:title="Ostillo Ricci">
<ellipse fill="none" stroke="black" cx="116.34" cy="-1602" rx="59.59" ry="18"/>
<text text-anchor="middle" x="116.34" y="-1598.3" font-family="CMU Serif Roman" font-size="14.00" fill="blue">Ostillo Ricci</text>
</a>
</g>
</g>
<!-- Ostillo Ricci&#45;&gt;Galileo Galilei -->
<g id="edge32" class="edge">
<title>Ostillo Ricci&#45;&gt;Galileo Galilei</title>
<path fill="none" stroke="black" d="M116.34,-1583.7C116.34,-1575.98 116.34,-1566.71 116.34,-1558.11"/>
<polygon fill="black" stroke="black" points="119.84,-1558.1 116.34,-1548.1 112.84,-1558.1 119.84,-1558.1"/>
</g>
<!-- Niccolò Fontana Tartaglia -->
<g id="node34" class="node">
<title>Niccolò Fontana Tartaglia</title>
<g id="a_node34"><a xlink:href="https://en.wikipedia.org/wiki/Niccol%C3%B2_Fontana_Tartaglia" xlink:title="Niccolò Fontana Tartaglia">
<ellipse fill="none" stroke="black" cx="116.34" cy="-1674" rx="116.18" ry="18"/>
<text text-anchor="middle" x="116.34" y="-1670.3" font-family="CMU Serif Roman" font-size="14.00" fill="blue">Niccolò Fontana Tartaglia</text>
</a>
</g>
</g>
<!-- Niccolò Fontana Tartaglia&#45;&gt;Ostillo Ricci -->
<g id="edge33" class="edge">
<title>Niccolò Fontana Tartaglia&#45;&gt;Ostillo Ricci</title>
<path fill="none" stroke="black" d="M116.34,-1655.7C116.34,-1647.98 116.34,-1638.71 116.34,-1630.11"/>
<polygon fill="black" stroke="black" points="119.84,-1630.1 116.34,-1620.1 112.84,-1630.1 119.84,-1630.1"/>
</g>
</g>
</svg>
